<?xml version="1.0" encoding="UTF-8"?>
<svg version="1.1" xmlns="http://www.w3.org/2000/svg" width="687" height="176">
<path d="M0 0 C226.71 0 453.42 0 687 0 C687 58.08 687 116.16 687 176 C460.29 176 233.58 176 0 176 C0 117.92 0 59.84 0 0 Z " fill="#FEFEFE" transform="translate(0,0)"/>
<path d="M0 0 C11.67493148 -0.04647693 23.34984069 -0.08194698 35.02484608 -0.10362434 C40.44685462 -0.11403187 45.86879954 -0.12813539 51.29077148 -0.15087891 C56.5297832 -0.17271577 61.76873397 -0.18459139 67.0077877 -0.18975449 C68.99991501 -0.19343085 70.99203924 -0.20060955 72.9841404 -0.21146011 C90.58573545 -0.30346152 106.63527109 0.19651829 120.24609375 13.01171875 C124.76765043 18.13749235 128.69667177 24.0234507 129 31 C129.061875 32.258125 129.12375 33.51625 129.1875 34.8125 C128.99913658 43.81969609 126.36459546 49.82380032 121 57 C120.4225 57.886875 119.845 58.77375 119.25 59.6875 C111.44972033 67.7044541 100.91162577 71.36330554 90 72 C93.7067158 75.80389562 97.57862979 79.31195517 101.625 82.75 C102.23964111 83.27440674 102.85428223 83.79881348 103.48754883 84.33911133 C109.94345016 89.83102065 116.49029043 95.20978089 123.125 100.484375 C124.135625 101.29390625 125.14625 102.1034375 126.1875 102.9375 C127.10917969 103.66839844 128.03085938 104.39929688 128.98046875 105.15234375 C129.64691406 105.76207031 130.31335938 106.37179688 131 107 C131 107.66 131 108.32 131 109 C124.79296098 109.22407392 118.58832166 109.38652809 112.37817383 109.49438477 C110.27033436 109.5393834 108.16277166 109.60060676 106.0559082 109.67895508 C86.29980287 110.3947221 86.29980287 110.3947221 79.3671875 104.75 C77.87068799 103.20514367 76.41258464 101.62194219 75 100 C73.3281014 98.46203207 71.64224428 96.93897835 69.9375 95.4375 C69.11507812 94.68855469 68.29265625 93.93960938 67.4453125 93.16796875 C65.12364505 91.10962141 62.75013153 89.16872977 60.3125 87.25 C53.32894793 81.75254781 46.68800425 75.84977438 40 70 C41.75501831 66.16572099 43.78780281 64.30427161 47.125 61.6875 C48.03507812 60.96949219 48.94515625 60.25148437 49.8828125 59.51171875 C50.38200195 59.12975342 50.88119141 58.74778809 51.39550781 58.35424805 C53.07937692 56.99372009 53.07937692 56.99372009 54.65917969 55.17114258 C58.75354165 50.87991531 61.6559084 49.53418993 67.625 49.23828125 C70.08344048 49.22904891 72.5422228 49.25465483 75 49.3125 C87.80471929 49.65879353 87.80471929 49.65879353 98.67553711 43.5222168 C101.14819217 40.68037269 100.5801094 37.25977704 100.48046875 33.66796875 C99.96624496 30.81256346 99.52673444 29.81814978 97.375 27.9375 C92.11776955 24.9194603 87.81100803 23.74142366 81.7578125 23.87158203 C79.93431274 23.89987595 79.93431274 23.89987595 78.07397461 23.92874146 C76.77081299 23.9548349 75.46765137 23.98092834 74.125 24.0078125 C71.33727824 24.03178499 68.54951296 24.04221211 65.76171875 24.0546875 C61.38772754 24.07814051 57.01595531 24.11861881 52.64306641 24.22265625 C24.45146941 24.86031477 24.45146941 24.86031477 16.3984375 17.25 C14.96261337 15.72038053 13.62022222 14.16137564 12.31234741 12.52145386 C10.0577669 9.90763363 7.3636809 7.96576852 4.625 5.875 C3.04430551 4.63139886 1.48738235 3.35382149 0 2 C0 1.34 0 0.68 0 0 Z " fill="#04B2E7" transform="translate(26,15)"/>
<path d="M0 0 C4.90721202 -0.05001078 9.8142707 -0.08600384 14.72167969 -0.10986328 C16.38576853 -0.11982596 18.04984031 -0.13340102 19.71386719 -0.15087891 C47.76979039 -0.43785285 47.76979039 -0.43785285 56 6 C60.22025266 10.34704137 62.37111654 14.46929703 62.625 20.5625 C62.1193024 28.28783778 59.40784877 32.93258959 53.875 38.25 C49.34102059 42.08238193 44.62524282 44.21495426 39 46 C42.98846247 52.60589097 47.42035357 58.79315319 52 65 C53.4811958 67.01934652 54.96043091 69.040133 56.4375 71.0625 C57.09621094 71.96097656 57.75492187 72.85945313 58.43359375 73.78515625 C60 76 60 76 61 78 C41.63121994 80.36116036 41.63121994 80.36116036 36.05810547 76.73730469 C32.85667454 73.34899598 30.89743163 69.29765832 28.98535156 65.08349609 C27.41246865 61.75768272 25.41374679 58.72148635 23.4375 55.625 C22.79683594 54.56539062 22.15617187 53.50578125 21.49609375 52.4140625 C20.21054199 50.13435818 20.21054199 50.13435818 19 49 C17.65252916 48.76924918 16.29622435 48.58846937 14.9375 48.4375 C13.638125 48.293125 12.33875 48.14875 11 48 C10.96261719 48.90878906 10.92523438 49.81757812 10.88671875 50.75390625 C10.39676796 60.12061253 9.00830842 68.83163546 7 78 C0.73 78 -5.54 78 -12 78 C-10.77470459 69.95935177 -9.50808683 61.92722046 -8.19848633 53.89990234 C-6.237287 41.87372267 -4.34490514 29.84429128 -2.67578125 17.7734375 C-1.85117168 11.83884578 -0.92154143 5.92017072 0 0 Z " fill="#153777" transform="translate(200,37)"/>
<path d="M0 0 C4.60406987 -0.05013226 9.20797445 -0.0860587 13.81225586 -0.10986328 C15.37250543 -0.11980628 16.93273696 -0.13336547 18.49291992 -0.15087891 C46.62008504 -0.45827962 46.62008504 -0.45827962 55 6 C59.32006724 10.74232945 61.3779336 15.12937374 61.28125 21.6796875 C60.43216498 28.6846389 57.42251104 34.50328353 52 39 C51.2471875 39.64839844 50.494375 40.29679687 49.71875 40.96484375 C46.8708016 43.09671317 44.23277194 44.36689165 40.9375 45.6875 C39.40416016 46.31205078 39.40416016 46.31205078 37.83984375 46.94921875 C33.82896087 48.43330059 30.51841199 49.12511803 26.234375 49.09765625 C25.34492187 49.09443359 24.45546875 49.09121094 23.5390625 49.08789062 C22.61867188 49.07951172 21.69828125 49.07113281 20.75 49.0625 C19.34621094 49.05573242 19.34621094 49.05573242 17.9140625 49.04882812 C15.60930959 49.03706918 13.30468773 49.02063426 11 49 C10.94376465 49.61399658 10.8875293 50.22799316 10.82958984 50.8605957 C10.33223331 56.21341026 9.70057868 61.54527296 9 66.875 C8.7525 68.75832031 8.7525 68.75832031 8.5 70.6796875 C8 74 8 74 7 78 C0.73 78 -5.54 78 -12 78 C-11.71125 76.35 -11.4225 74.7 -11.125 73 C-10.28056778 67.9690869 -9.60185983 62.93875903 -9 57.875 C-8.48328072 53.54709682 -7.91885831 49.26407684 -7 45 C-5.99806089 40.32942232 -5.4479072 35.6447348 -4.89501953 30.90234375 C-3.63924554 20.54763155 -1.76859659 10.27691058 0 0 Z " fill="#153777" transform="translate(496,37)"/>
<path d="M0 0 C5.02360885 1.52809395 8.28935137 4.57617891 12.125 8 C13.35554696 9.08472331 14.58727478 10.16810884 15.8203125 11.25 C16.35930176 11.72953125 16.89829102 12.2090625 17.45361328 12.703125 C19.18056144 14.19956124 19.18056144 14.19956124 22 16 C21.66926744 18.94351974 21.05098577 19.95080155 18.8828125 22.04296875 C17.97273438 22.75066406 17.06265625 23.45835938 16.125 24.1875 C15.13242188 24.97125 14.13984375 25.755 13.1171875 26.5625 C11.57417969 27.7690625 11.57417969 27.7690625 10 29 C8.07905935 30.55724255 6.16223193 32.11957576 4.25 33.6875 C3.35152344 34.42226562 2.45304687 35.15703125 1.52734375 35.9140625 C-1.68670679 38.56677191 -4.85082962 41.27071901 -8 44 C-0.75741367 51.48400587 7.16385251 58.17953967 15.25 64.7265625 C20.70717982 69.23803786 26.03901671 73.94361318 31 79 C29.1265988 80.73092571 27.25133718 82.45976163 25.375 84.1875 C24.85292969 84.67025391 24.33085938 85.15300781 23.79296875 85.65039062 C22.73452775 86.623895 21.67032361 87.59116886 20.60058594 88.55224609 C19.52951561 89.52104522 18.47529541 90.50878954 17.43847656 91.51416016 C15.16500435 93.61941582 13.68630134 94.95873505 10.53125 95.1484375 C7.00597976 93.54900934 4.33953244 91.19731975 1.5 88.625 C0.25432777 87.52686542 -0.99177579 86.42921994 -2.23828125 85.33203125 C-2.86557129 84.77467285 -3.49286133 84.21731445 -4.13916016 83.64306641 C-6.95365057 81.15795483 -9.81729934 78.73282866 -12.6875 76.3125 C-13.22439453 75.8582666 -13.76128906 75.4040332 -14.31445312 74.93603516 C-17.68341758 72.09129142 -21.08152454 69.28524122 -24.5 66.5 C-28.70841648 63.06632882 -32.89827872 59.61207468 -37.0625 56.125 C-37.90361328 55.42793945 -37.90361328 55.42793945 -38.76171875 54.71679688 C-41.28852408 52.59141751 -43.15353458 50.76969814 -45 48 C-45.44945129 42.42680404 -45.32984641 39.64730738 -42 35 C-39.65234375 32.859375 -39.65234375 32.859375 -36.9375 30.75 C-33.2356915 27.81374876 -29.65798409 24.8311757 -26.1875 21.625 C-21.63363768 17.4712374 -16.85757995 13.67626629 -11.99243164 9.8996582 C-7.88859953 6.71246422 -3.9001023 3.4358044 0 0 Z " fill="#57BD4C" transform="translate(57,44)"/>
<path d="M0 0 C-0.39305992 6.80614284 -0.87035191 13.52269273 -2 20.25 C-3.71651046 31.39450819 -3.67849905 42.7474667 -4 54 C-9.94 54 -15.88 54 -22 54 C-22.495 50.04 -22.495 50.04 -23 46 C-23.4846875 46.47050781 -23.969375 46.94101563 -24.46875 47.42578125 C-31.26442963 53.73792214 -37.07587442 56.67009748 -46.47265625 56.3515625 C-51.96549248 55.58748945 -56.4078189 53.5502816 -60.375 49.6875 C-64.82357695 42.33023813 -65.98099231 36.63052781 -65 28 C-62.29163711 17.36546776 -55.35237368 8.58016721 -46.09375 2.8125 C-31.95730684 -4.81669155 -15.23576639 -2.45173252 0 0 Z " fill="#163879" transform="translate(613,61)"/>
<path d="M0 0 C0.85515534 3.52565417 1.02023519 6.27943449 0.4765625 9.859375 C0.34290283 10.79910156 0.20924316 11.73882812 0.0715332 12.70703125 C-0.14950073 14.21330078 -0.14950073 14.21330078 -0.375 15.75 C-2.12390955 28.48655959 -2.6854557 41.15791556 -3 54 C-8.94 54 -14.88 54 -21 54 C-21.495 50.535 -21.495 50.535 -22 47 C-22.56847656 47.48210937 -23.13695312 47.96421875 -23.72265625 48.4609375 C-30.66490196 54.1399031 -36.40440139 56.52295576 -45.4375 56.31640625 C-51.04269882 55.62430091 -55.50594957 53.53235942 -59.4375 49.5 C-59.953125 48.675 -60.46875 47.85 -61 47 C-61.53173828 46.18402344 -61.53173828 46.18402344 -62.07421875 45.3515625 C-64.81970735 38.37778976 -63.99291 27.4933847 -61.5 20.5 C-56.66318958 10.55578836 -48.56705735 4.09721417 -38.48046875 -0.03125 C-26.08748459 -4.04457021 -12.57207767 -2.20011359 0 0 Z " fill="#153778" transform="translate(417,61)"/>
<path d="M0 0 C2.15630865 1.72300786 3.84651622 3.27115744 5.08984375 5.7578125 C5.56457661 11.026569 6.00798764 15.99497623 3.52734375 20.7578125 C-7.99024371 30.20814068 -23.61502666 30.38016396 -37.91015625 31.7578125 C-36.46069513 35.38146529 -35.44568507 37.39518299 -32.17578125 39.609375 C-22.98896003 42.84014705 -12.81017877 41.15540024 -3.91015625 37.7578125 C-2.71390625 37.3659375 -1.51765625 36.9740625 -0.28515625 36.5703125 C0.49859375 36.3021875 1.28234375 36.0340625 2.08984375 35.7578125 C2.35726498 46.38780627 2.35726498 46.38780627 -0.40625 49.375 C-2.55433647 50.49010324 -4.56603289 51.15715527 -6.91015625 51.7578125 C-7.63332031 51.97695312 -8.35648437 52.19609375 -9.1015625 52.421875 C-21.86823357 55.66214684 -35.32255178 54.72850781 -47.02734375 48.66015625 C-51.66812992 45.72231951 -55.17415742 42.01149317 -56.91015625 36.7578125 C-58.12130292 27.49070539 -58.17332314 19.5073375 -52.47265625 11.6953125 C-51.95703125 11.0559375 -51.44140625 10.4165625 -50.91015625 9.7578125 C-50.33265625 8.8503125 -49.75515625 7.9428125 -49.16015625 7.0078125 C-37.33284872 -4.81949503 -14.56201318 -9.46977544 0 0 Z " fill="#163878" transform="translate(317.91015625,63.2421875)"/>
<path d="M0 0 C6.6 0 13.2 0 20 0 C22.34254373 7.43151805 24.51594124 14.8315729 26.33984375 22.40625 C27.00385471 25.16578689 27.00385471 25.16578689 28.1875 28.4375 C29.03236211 31.10206512 29.16335722 33.22292721 29 36 C29.66 36 30.32 36 31 36 C31.350625 34.845 31.70125 33.69 32.0625 32.5 C35.85616029 21.15480836 41.09038639 10.37785805 47 0 C52.94 0 58.88 0 65 0 C63.14364018 6.55185821 60.46687787 11.82374 56.953125 17.640625 C54.82738353 21.29690033 52.92840896 25.01945981 51.0625 28.8125 C31.32788619 68.69088306 31.32788619 68.69088306 13 76 C6.29095748 78.23634751 0.03534 78.2110602 -7 78 C-7.02686553 76.02090602 -7.04633375 74.04171029 -7.0625 72.0625 C-7.07410156 70.96035156 -7.08570313 69.85820312 -7.09765625 68.72265625 C-7 66 -7 66 -6 65 C-4.16999684 64.72668784 -2.33572534 64.4817835 -0.5 64.25 C6.29828114 63.17914903 12.07965625 60.92034375 17 56 C17 49.45553536 15.09772869 44.29709717 12.58276367 38.29760742 C10.28578049 32.80717487 8.26215961 27.24765105 6.3125 21.625 C6.02745605 20.80539795 5.74241211 19.9857959 5.44873047 19.14135742 C4.89821334 17.55013447 4.35093175 15.95778788 3.80712891 14.36425781 C3.25319233 12.74165595 2.69261351 11.12131105 2.12646484 9.50292969 C1.85141113 8.70532227 1.57635742 7.90771484 1.29296875 7.0859375 C1.04442139 6.37228027 0.79587402 5.65862305 0.53979492 4.92333984 C0 3 0 3 0 0 Z " fill="#153777" transform="translate(420,61)"/>
<path d="M0 0 C6.6 0 13.2 0 20 0 C23.7513967 11.90098263 26.93977696 23.68713757 29 36 C29.66 36 30.32 36 31 36 C31.37898437 34.53820312 31.37898437 34.53820312 31.765625 33.046875 C33.03859202 28.60265682 34.85186596 24.45800889 36.75 20.25 C37.10126953 19.46447754 37.45253906 18.67895508 37.81445312 17.86962891 C40.59403729 11.72906842 43.65415113 5.85523553 47 0 C53.27 0 59.54 0 66 0 C61.21039773 9.75994424 56.21951624 19.3419764 50.93286133 28.84130859 C48.45770873 33.30184313 46.08335416 37.77426218 43.875 42.375 C35.56339911 59.23704088 26.33531995 70.26587202 8.5625 77.375 C3.05574173 78.34109794 -2.42490208 78.15090491 -8 78 C-7.67 74.04 -7.34 70.08 -7 66 C-6.01 65.71125 -5.02 65.4225 -4 65.125 C-3.35933594 64.93808594 -2.71867188 64.75117187 -2.05859375 64.55859375 C-0.72784836 64.19749965 0.6140078 63.87426878 1.96484375 63.59765625 C8.216266 62.29785558 13.46396132 59.53603868 18 55 C17.64764927 50.26744611 16.0109648 46.1424591 14.1875 41.8125 C13.63685377 40.46792528 13.08737844 39.12287045 12.5390625 37.77734375 C12.27254883 37.12620605 12.00603516 36.47506836 11.73144531 35.80419922 C8.55832927 27.97732085 5.94115218 19.93909399 3.25 11.9375 C2.93168213 10.99567871 2.61336426 10.05385742 2.28540039 9.08349609 C1.99012451 8.19871582 1.69484863 7.31393555 1.390625 6.40234375 C1.12282227 5.60304443 0.85501953 4.80374512 0.57910156 3.98022461 C0 2 0 2 0 0 Z " fill="#153778" transform="translate(615,61)"/>
<path d="M0 0 C1.15242188 0.00902344 2.30484375 0.01804688 3.4921875 0.02734375 C4.36101562 0.03894531 5.22984375 0.05054688 6.125 0.0625 C5.49949487 8.14743257 4.44664445 16.11609237 3.1875 24.125 C3.01798828 25.23166016 2.84847656 26.33832031 2.67382812 27.47851562 C1.76852408 33.3061953 0.74440958 39.08544393 -0.4440918 44.86157227 C-1.03762857 47.89314962 -1.43690928 50.9344643 -1.8125 54 C-2.97207067 63.05392781 -4.42772882 72.04994765 -5.875 81.0625 C-12.145 81.0625 -18.415 81.0625 -24.875 81.0625 C-24.875 73.2008975 -24.875 73.2008975 -24.0703125 69.56640625 C-23.89886719 68.75880859 -23.72742188 67.95121094 -23.55078125 67.11914062 C-23.36902344 66.29607422 -23.18726563 65.47300781 -23 64.625 C-21.51803946 57.91226762 -20.47084276 51.21290283 -19.65727234 44.39007568 C-18.815313 37.3864234 -17.74779571 30.42460355 -16.64282227 23.45825195 C-16.30660688 21.33783368 -15.97432891 19.21682409 -15.64257812 17.09570312 C-13.88597697 5.92334155 -13.88597697 5.92334155 -12.875 1.0625 C-8.52167264 0.22226812 -4.43057481 -0.04520995 0 0 Z " fill="#143677" transform="translate(350.875,33.9375)"/>
<path d="M0 0 C1.16198816 0.97902979 2.32574556 1.95596833 3.4921875 2.9296875 C4.6217691 3.90918254 5.74935163 4.89098736 6.875 5.875 C11.90028349 10.23967008 17.00835016 14.44044691 22.3046875 18.4765625 C22.86414063 18.97929688 23.42359375 19.48203125 24 20 C24 20.66 24 21.32 24 22 C17.79296098 22.22407392 11.58832166 22.38652809 5.37817383 22.49438477 C3.27033436 22.5393834 1.16277166 22.60060676 -0.9440918 22.67895508 C-20.70016011 23.39472075 -20.70016011 23.39472075 -27.62890625 17.75390625 C-29.12666254 16.20770588 -30.58590417 14.62306575 -32 13 C-33.6929812 11.44148996 -35.39967139 9.89762277 -37.125 8.375 C-37.929375 7.63894531 -38.73375 6.90289062 -39.5625 6.14453125 C-42.70360371 3.38096404 -46.00796293 0.87998561 -49.3828125 -1.58984375 C-49.91648437 -2.05519531 -50.45015625 -2.52054687 -51 -3 C-51 -3.66 -51 -4.32 -51 -5 C-45.02367665 -5.29255264 -39.04754549 -5.54344778 -33.06787109 -5.75683594 C-31.03648096 -5.83507824 -29.00548621 -5.92444475 -26.97509766 -6.02539062 C-24.0462455 -6.16903222 -21.11827441 -6.27182967 -18.1875 -6.3671875 C-17.28821777 -6.42002899 -16.38893555 -6.47287048 -15.46240234 -6.52731323 C-8.55249672 -6.69176161 -5.02503322 -4.59822 0 0 Z " fill="#57BC4C" transform="translate(133,102)"/>
<path d="M0 0 C3.7347422 1.35613117 6.31243943 3.73338529 9.2109375 6.359375 C10.45135407 7.45365669 11.6922509 8.54739418 12.93359375 9.640625 C13.56023926 10.1975 14.18688477 10.754375 14.83251953 11.328125 C17.73224496 13.88488836 20.68955049 16.37160417 23.6484375 18.859375 C24.71376368 19.76015417 25.77887688 20.66118528 26.84375 21.5625 C28.58605361 23.0342006 30.33031695 24.50359078 32.078125 25.96875 C33.64035184 27.28629071 35.17957829 28.63108081 36.7109375 29.984375 C36.7109375 30.314375 36.7109375 30.644375 36.7109375 30.984375 C30.72188411 31.45406696 24.73625061 31.83004711 18.73608398 32.12573242 C16.70299019 32.23842308 14.67106566 32.37519488 12.64135742 32.5378418 C-6.01207436 34.00455236 -6.01207436 34.00455236 -14.2205658 27.30986023 C-17.09056123 24.66503024 -19.72062807 21.92425314 -22.2890625 18.984375 C-20.52557345 15.12620629 -18.45461363 13.24556693 -15.1015625 10.609375 C-11.74623978 7.96020516 -8.52040695 5.29428763 -5.4140625 2.359375 C-2.2890625 -0.015625 -2.2890625 -0.015625 0 0 Z " fill="#165195" transform="translate(88.2890625,66.015625)"/>
<path d="M0 0 C0.98484375 0.01804687 1.9696875 0.03609375 2.984375 0.0546875 C4.10585938 0.08949219 4.10585938 0.08949219 5.25 0.125 C5.67870255 22.49318582 5.67870255 22.49318582 -1.0625 29.5625 C-5.44444005 33.00021447 -9.37074923 34.38601556 -14.9375 34 C-18.75 33.125 -18.75 33.125 -20.4609375 31.39453125 C-23.16913121 26.626469 -22.42841778 20.82587079 -21.12890625 15.65234375 C-18.54720478 8.96286837 -13.85537804 4.69510237 -7.859375 0.94140625 C-5.14089408 -0.11074655 -2.90522442 -0.06917201 0 0 Z " fill="#FBFBFC" transform="translate(588.75,69.875)"/>
<path d="M0 0 C0.98484375 0.01804687 1.9696875 0.03609375 2.984375 0.0546875 C4.10585938 0.08949219 4.10585938 0.08949219 5.25 0.125 C5.40574526 9.34511964 5.49685026 19.9789169 0.43359375 28.00390625 C-3.52570017 31.96320017 -6.95946219 33.60746832 -12.5625 33.9375 C-16.07620004 33.63730994 -17.50169352 33.29823708 -20.4375 31.25 C-22.9536718 25.25911477 -22.55899558 19.46768936 -20.25 13.4375 C-16.2647923 5.41015307 -9.00364778 -0.21437257 0 0 Z " fill="#FBFBFC" transform="translate(393.75,69.875)"/>
<path d="M0 0 C16.09447929 -0.82418386 16.09447929 -0.82418386 23 4 C25.69750095 8.04625142 25.65911444 11.24786625 25 16 C22.52356645 20.86114734 19.33687562 24.81355533 14.06640625 26.6875 C8.06901177 28.22693815 2.15648855 28.20713419 -4 28 C-3.23945318 18.56921949 -1.61328437 9.31443428 0 0 Z " fill="#F9FAFB" transform="translate(513,48)"/>
<path d="M0 0 C6.67431403 0.05867529 12.75558745 0.59548064 18.0625 4.9375 C19.46895687 8.40676027 19.63258964 11.60909519 19 15.25 C16.16616889 20.7077488 12.67822227 24.13407406 7 26.5 C1.49079249 27.89877429 -4.36555182 27.40251138 -10 27.25 C-8.72097113 0.1211246 -8.72097113 0.1211246 0 0 Z " fill="#FBFBFC" transform="translate(224,47.75)"/>
<path d="M0 0 C2.35845673 1.77009972 2.90273218 2.52581939 3.5 5.4375 C3 8 3 8 1.25 10.125 C-6.23771761 14.44483708 -14.48758125 15.42562094 -23 15 C-22.32282636 9.24402403 -19.64209604 5.55999124 -15.5 1.625 C-10.47735312 -0.70694319 -5.45784022 -0.87419952 0 0 Z " fill="#F8F9F9" transform="translate(303,70)"/>
<path d="M0 0 C0.33 0 0.66 0 1 0 C1 5.28 1 10.56 1 16 C-4.94 16 -10.88 16 -17 16 C-17.33 12.7 -17.66 9.4 -18 6 C-17.34 6 -16.68 6 -16 6 C-15.67 8.31 -15.34 10.62 -15 13 C-10.05 13.33 -5.1 13.66 0 14 C0 9.38 0 4.76 0 0 Z " fill="#3E5177" transform="translate(608,99)"/>
<path d="M0 0 C0 3 0 3 -1.28515625 4.44213867 C-1.87167969 4.9291626 -2.45820313 5.41618652 -3.0625 5.91796875 C-3.69414062 6.44970703 -4.32578125 6.98144531 -4.9765625 7.52929688 C-5.64429688 8.07650391 -6.31203125 8.62371094 -7 9.1875 C-7.66773438 9.74630859 -8.33546875 10.30511719 -9.0234375 10.88085938 C-10.67577507 12.26174149 -12.33706588 13.63189731 -14 15 C-14.66 14.67 -15.32 14.34 -16 14 C-13.89817699 12.03909808 -11.79367717 10.08121556 -9.6875 8.125 C-8.79514648 7.29162109 -8.79514648 7.29162109 -7.88476562 6.44140625 C-7.30791016 5.90644531 -6.73105469 5.37148437 -6.13671875 4.8203125 C-5.60780029 4.32805176 -5.07888184 3.83579102 -4.53393555 3.32861328 C-3 2 -3 2 0 0 Z " fill="#5EB350" transform="translate(32,65)"/>
<path d="M0 0 C4.29 0 8.58 0 13 0 C12.67 3.63 12.34 7.26 12 11 C11.67 11 11.34 11 11 11 C10.34 8.03 9.68 5.06 9 2 C6.03 1.67 3.06 1.34 0 1 C0 0.67 0 0.34 0 0 Z " fill="#47587B" transform="translate(344,34)"/>
<path d="M0 0 C3.875 1.75 3.875 1.75 5 4 C-2.59 4 -10.18 4 -18 4 C-18 3.67 -18 3.34 -18 3 C-12.06 3 -6.12 3 0 3 C0 2.01 0 1.02 0 0 Z " fill="#19498F" transform="translate(120,93)"/>
<path d="M0 0 C1.88343932 3.76687864 2.22057835 5.02958963 2 9 C1.01 9.33 0.02 9.66 -1 10 C-0.67 6.7 -0.34 3.4 0 0 Z " fill="#41547B" transform="translate(397,83)"/>
</svg>
